<svg xmlns="http://www.w3.org/2000/svg" height="800" width="1200" fill-rule="evenodd" viewBox="-114.55515 -87.99675 992.8113 527.9805"><path d="M0 23.78C0 10.7 10.7 0 23.78 0h716.138c13.081 0 23.781 10.7 23.781 23.78v304.426c0 13.082-10.7 23.781-23.781 23.781H23.78C10.7 351.987 0 341.288 0 328.206z" fill="#f0a929"/><path d="M0 34.559h763.7v282.865H0z" fill="#fff"/><path d="M647.216 108.023c-34.941 0-63.424 28.487-63.424 63.428 0 34.928 28.483 63.419 63.424 63.419 34.934 0 63.418-28.491 63.418-63.419 0-34.941-28.484-63.428-63.418-63.428zm-522.762 0c-34.944 0-63.431 28.487-63.431 63.428 0 34.928 28.487 63.419 63.431 63.419 34.928 0 63.416-28.491 63.416-63.419 0-34.941-28.488-63.428-63.416-63.428z" fill="#e21c2a"/><path d="M642.238 52.204c-58.712-1.349-86.315 36.299-126.376 82.734l-37.791 43.796 59.843 71.641c14.257 22.012-12.954 43.858-29.836 23.716l-55.328-66-53.914 62.5c-17.169 19.895-44.071-2.33-29.509-24.136l58.528-68.061-38.344-45.742 24.666-30.548 38.996 46.844 33.615-39.102c16.494-19.172 33.315-44.578 55.116-57.642H.001v247.58H126.7c58.72 0 85.376-35.108 124.351-82.451l36.776-44.669-61.49-70.232c-14.748-21.68 11.945-44.141 29.29-24.396l56.828 64.711 52.474-63.731c16.701-20.295 44.103 1.315 30.051 23.453l-56.946 69.399 39.392 44.847-24.82 29.391-39.209-44.222-32.7 39.857c-16.05 19.548-32.297 44.48-53.795 58.043h536.799V52.204zm-417.59 119.247c0 55.193-45.004 100.202-100.194 100.202-55.204 0-100.208-45.009-100.208-100.202 0-55.202 45.004-100.207 100.208-100.207 55.19 0 100.194 45.005 100.194 100.207zm422.568 100.202c-55.194 0-100.208-45.009-100.208-100.202 0-55.202 45.014-100.207 100.208-100.207 55.197 0 100.2 45.005 100.2 100.207 0 55.193-45.003 100.202-100.2 100.202z" fill="#e21c2a"/></svg>